<svg height="512" viewBox="0 0 60 53" width="512" xmlns="http://www.w3.org/2000/svg"><g id="Page-1" fill="none" fill-rule="evenodd"><g id="010---Recycle-Symbol" fill-rule="nonzero"><path id="Shape" d="m38.02 28.02-.02-.02c-.7980821-1.0593195-1.1407272-2.3931882-.952-3.706.3614096-2.4249011 2.4159639-4.2375693 4.867-4.294.7055836-.013541 1.4060093.1227949 2.055.4-2.5188884-7.2109918-9.2105228-12.13256107-16.8444956-12.38880467-7.6339728-.25624361-14.6405705 4.20552777-17.6373359 11.23137997-2.99676541 7.0258521-1.36749735 15.1711146 4.1012699 20.5036362 5.4687672 5.3325216 13.6525342 6.7558181 20.6005616 3.5827885.4020768-.1915458.882367-.0941015 1.178.239l3.413 3.9c.2015544.2253644.2895795.530213.2391799.828329-.0503995.2981161-.2337438.557087-.4981799.703671-9.6391046 5.1566045-21.4924847 3.5972816-29.47001021-3.8768065-7.97752553-7.4740882-10.30512503-19.2008263-5.78690472-29.1551516 4.51822031-9.95432533 14.87748203-15.92255829 25.75531583-14.83828962s19.855187 8.97991532 22.3195991 19.63024772c2.0421556-1.2891145 4.7138501-.9343635 6.3488339.8430064 1.6349839 1.7773698 1.7659277 4.4693307.3111661 6.3969936l-.02.02-9.24 10.166c-.1895245.2085142-.458224.3273931-.74.3273931s-.5504755-.1188789-.74-.3273931z" fill="#e8edfc"/><g fill="#cad9fc"><path id="Shape" d="m24.858 8.071c.052 0 .1 0 .156-.007-1.0503761-.08513342-2.1060119-.08279202-3.156.007-9.8685568.86700413-17.30270267 9.3539899-16.86265473 19.2507807s8.59809323 17.6904901 18.50465473 17.6782193c.47 0 .93-.041 1.391-.076-9.541573-.8444255-16.86054659-8.8325474-16.86912398-18.4114093-.00857738-9.5788619 7.29607858-17.58007859 16.83612398-18.4415907z"/><path id="Shape" d="m48.34 20.76c.838126-.5179982 1.8102011-.7777979 2.795-.747-2.9378481-11.19886722-13.0571953-19.00885907-24.635-19.013-.554 0-1.1.024-1.648.059 11.3460798.59579053 20.9267351 8.63174462 23.488 19.701z"/><path id="Shape" d="m40.97 20.4c-.03-.087-.07-.169-.1-.256-.112.027-.22.064-.329.1.145.045.289.096.429.156z"/><path id="Shape" d="m35.368 43.568c-.295633-.3331015-.7759232-.4305458-1.178-.239-.489.225-1 .416-1.509.6l3.1 3.539c.2015544.2253644.2895795.530213.2391799.828329-.0503995.2981161-.2337438.557087-.4981799.703671-3.2562583 1.7405568-6.8534542 2.7487273-10.54 2.954.348.021.7.039 1.049.046 4.3518681.0861398 8.6529294-.9468586 12.491-3 .2637506-.146678.4465794-.4052383.4969506-.7027976.0503711-.2975593-.0371712-.6018883-.2379506-.8272024z"/><path id="Shape" d="m58.97 24.438c-.1616216-1.4892831-.9859748-2.8263615-2.243986-3.6396839-1.2580111-.8133225-2.8156275-1.016222-4.240014-.5523161 1.8829745.5931084 3.2453222 2.2323053 3.484 4.192.1453651 1.2677877-.2018908 2.5429686-.97 3.562l-.02.02-8.48 9.33.76.836c.1895245.2085142.458224.3273931.74.3273931s.5504755-.1188789.74-.3273931l9.24-10.166.02-.02c.7681092-1.0190314 1.1153651-2.2942123.97-3.562z"/></g><path id="Shape" d="m35.694 43.931c-.576-.64-.63-.63-.873-.678-.2130704-.0422332-.4340511-.0156175-.631.076-1.9481734.8886655-4.0371954 1.4285213-6.172 1.595 2.6001047.2158195 5.2164085-.1226367 7.676-.993z" fill="#fff"/><path id="Shape" d="m26.031 52c.653.012 1.3-.009 1.946-.046-13.4681239-.8099521-23.97581484-11.9685434-23.97581484-25.461s10.50769094-24.65104786 23.97581484-25.461c-9.211238-.5237969-17.98734482 3.96743609-22.95031409 11.744981-4.96296928 7.7775448-5.33910315 17.6289279-.98362415 25.7622588 4.355479 8.1333308 12.76357724 13.2806708 21.98793824 13.4607602z" fill="#fff"/><path id="Shape" d="m1.184 18.681 1.911.59c-.72351586 2.4610739-1.09223036 5.0127803-1.095 7.578l-2 .028c.00004741-2.7746094.39878881-5.5348159 1.184-8.196z" fill="#fff"/><path id="Shape" d="m1.308 23.872c-.55228475.0027614-1.00223858-.4427153-1.005-.995s.44271525-1.0022386.995-1.005h.01c.55228475 0 1 .4477153 1 1s-.44771525 1-1 1z" fill="#428dff"/><path id="Shape" d="m26.014 53h.478c4.3599504.0016629 8.6531492-1.0709498 12.5-3.123.5275242-.2840398.8959692-.7939678 1-1.384.1113722-.6034132-.0604099-1.2245568-.466-1.685l-3.413-3.9c-.5853462-.6688361-1.5432493-.8684162-2.347-.489-2.2789322 1.046958-4.7580877 1.5863944-7.266 1.581-8.6712641-.0023882-16.0331782-6.354442-17.30571106-14.9318243-1.27253284-8.5773823 3.92810396-16.7932051 12.22517906-19.31300104 8.2970752-2.51979597 17.1882395 1.41639044 20.900532 9.25282534-.139-.008-.278-.008-.42-.008-2.2546173.0373501-4.2979246 1.3356605-5.2894462 3.3608961-.9915216 2.0252357-.7638192 4.4353946.5894462 6.2391039.018.024.057.067.076.088l9.242 10.167c.389.3987132.9224604.6235428 1.4795.6235428s1.0905-.2248296 1.4795-.6235428l9.239-10.155c.0297554-.0318185.0577951-.0651991.084-.1.9220882-1.2222129 1.339822-2.7517559 1.167-4.273-.2049769-1.8167304-1.2257601-3.4413752-2.7735995-4.4143695-1.5478394-.9729944-3.4544108-1.1885272-5.1804005-.5856305-3.1673982-11.4622886-13.6212589-19.38145794-25.513-19.327-2.8099251.0360119-5.5992116.48584247-8.278 1.335-2.6697675.8822638-5.1806808 2.18718247-7.437 3.865-1.12600041.83432085-2.19042291 1.74868818-3.185 2.736l-1.41 1.564c-.473.518-.848 1.116-1.277 1.671-1.62843811 2.2916238-2.88677626 4.8248349-3.729 7.507-.16292399.5277081.13279194 1.087576.66050001 1.2505s1.08757598-.1327919 1.25049999-.6605c.77921179-2.4788408 1.94270636-4.8200024 3.448-6.938.4-.512.741-1.068 1.181-1.546l1.3-1.449c.9220932-.91322125 1.9082719-1.75937658 2.951-2.532 2.0856486-1.55023455 4.4064625-2.75588283 6.874-3.571 2.476467-.78217003 5.0541806-1.1972456 7.651-1.232 11.4218687-.04949825 21.3443953 7.84361911 23.865 18.984.0726949.3138957.2921819.5735345.5896005.6974589.2974185.1239244.6363275.0969506.9103995-.0724589 1.1655751-.7285434 2.6231334-.8091544 3.8619391-.2135864 1.2388058.595568 2.086128 1.7842728 2.2450609 3.1495864.1173684.9928095-.1455999 1.9932325-.736 2.8l-9.236 10.168-9.225-10.146c-.6212143-.8452614-.885529-1.9007249-.736-2.939.3014784-1.9314048 1.9379867-3.3728104 3.892-3.428.5654488-.0109664 1.1267956.0980991 1.647.32.3643634.1552735.7860333.0808687 1.0752502-.1897309.2892169-.2705997.3914725-.6863946.2607498-1.0602691-3.2728835-9.3704098-13.0621461-14.78729162-22.7398409-12.58307564-9.6776949 2.20421599-16.15556264 11.32614014-15.04767918 21.18965574s9.44798028 17.3210658 19.37352008 17.3234199c2.8022631.0079751 5.5723478-.5971703 8.116-1.773l3.435 3.887c-3.6869532 1.9730839-7.8191254 2.9654939-12 2.882-13.179522-.3335288-23.76997513-10.966254-24.051-24.147-.02128356-.5463478-.46727054-.9800195-1.014-.986-.55191209.0076802-.99322899.4610818-.986 1.013.30303136 14.2579555 11.75745 25.7608091 26.014 26.124z" fill="#428dff"/></g></g></svg>