<?xml version="1.0" encoding="iso-8859-1"?>
<!-- Generator: Adobe Illustrator 19.0.0, SVG Export Plug-In . SVG Version: 6.00 Build 0)  -->
<svg version="1.1" id="Capa_1" xmlns="http://www.w3.org/2000/svg" xmlns:xlink="http://www.w3.org/1999/xlink" x="0px" y="0px"
	 viewBox="0 0 512 512" style="enable-background:new 0 0 512 512;" xml:space="preserve">
<g>
	<polygon style="fill:#A4C2F7;" points="426.667,480.367 460.8,446.233 477.867,463.3 477.867,36.633 426.667,36.633 	"/>
	<polygon style="fill:#FFFFFF;" points="34.133,463.3 68.267,446.233 85.333,463.3 85.333,36.633 34.133,36.633 	"/>
	<polygon style="fill:#D4E1F4;" points="63.019,446.233 108.305,497.433 153.6,446.233 210.705,497.433 265.19,446.233 
		310.485,497.433 355.772,446.233 401.067,497.433 443.733,463.3 452.267,463.3 452.267,36.633 59.733,36.633 59.733,463.3 	"/>
	<path style="fill:#FFFFFF;" d="M477.867,11.033H34.133c-14.138,0-25.6,11.462-25.6,25.6s11.462,25.6,25.6,25.6v-25.6h443.733v25.6
		c14.138,0,25.6-11.462,25.6-25.6S492.005,11.033,477.867,11.033z"/>
	<g>
		<path style="fill:#428DFF;" d="M477.867,70.767h-8.533v-25.6H42.667v25.6h-8.533C15.282,70.767,0,55.485,0,36.633
			S15.282,2.5,34.133,2.5h443.733C496.718,2.5,512,17.782,512,36.633S496.718,70.767,477.867,70.767z M25.6,28.1h460.8v23.308
			c6.69-3.861,9.951-11.735,7.952-19.195c-1.999-7.461-8.761-12.648-16.485-12.646H34.133c-7.724-0.001-14.486,5.186-16.485,12.646
			c-1.999,7.461,1.262,15.334,7.952,19.195V28.1z"/>
		<path style="fill:#428DFF;" d="M409.6,509.5l-51.2-51.2l-51.2,51.2L256,458.3l-51.2,51.2l-51.2-51.2l-51.2,51.2l-51.2-51.2
			l-25.6,25.6V190.233c0-4.713,3.821-8.533,8.533-8.533s8.533,3.821,8.533,8.533V442.7l8.533-8.533l51.2,51.2l51.2-51.2l51.2,51.2
			l51.2-51.2l51.2,51.2l51.2-51.2l51.2,51.2l51.2-51.2l8.533,8.533V45.167H42.667v76.8c0,4.713-3.821,8.533-8.533,8.533
			s-8.533-3.821-8.533-8.533V28.1h460.8v455.8l-25.6-25.6L409.6,509.5z"/>
		<circle style="fill:#428DFF;" cx="34.133" cy="156.1" r="8.533"/>
		<path style="fill:#428DFF;" d="M375.467,360.9h-128c-4.713,0-8.533-3.82-8.533-8.533s3.821-8.533,8.533-8.533h128
			c4.713,0,8.533,3.82,8.533,8.533S380.18,360.9,375.467,360.9z"/>
		<path style="fill:#428DFF;" d="M418.133,360.9c-2.854,0.027-5.529-1.388-7.113-3.763c-1.584-2.374-1.863-5.388-0.742-8.012
			c0.433-1.035,1.04-1.988,1.796-2.817c2.451-2.426,6.123-3.133,9.3-1.792c1.034,0.433,1.987,1.039,2.817,1.792
			c0.771,0.817,1.379,1.773,1.792,2.817c1.124,2.624,0.847,5.638-0.737,8.013C423.663,359.513,420.988,360.928,418.133,360.9
			L418.133,360.9z"/>
		<path style="fill:#428DFF;" d="M418.133,241.433h-128c-4.713,0-8.533-3.821-8.533-8.533c0-4.713,3.821-8.533,8.533-8.533h128
			c4.713,0,8.533,3.821,8.533,8.533C426.667,237.613,422.846,241.433,418.133,241.433z"/>
		<path style="fill:#428DFF;" d="M418.133,301.167H332.8c-4.713,0-8.533-3.82-8.533-8.533s3.82-8.533,8.533-8.533h85.333
			c4.713,0,8.533,3.82,8.533,8.533S422.846,301.167,418.133,301.167z"/>
		<path style="fill:#428DFF;" d="M264.533,301.167h-17.067c-4.713,0-8.533-3.82-8.533-8.533s3.821-8.533,8.533-8.533h17.067
			c4.713,0,8.533,3.82,8.533,8.533S269.246,301.167,264.533,301.167z"/>
		<path style="fill:#428DFF;" d="M375.467,181.7h-128c-4.713,0-8.533-3.821-8.533-8.533c0-4.713,3.821-8.533,8.533-8.533h128
			c4.713,0,8.533,3.821,8.533,8.533C384,177.88,380.18,181.7,375.467,181.7z"/>
		<path style="fill:#428DFF;" d="M418.133,181.7c-2.27,0.022-4.453-0.87-6.058-2.475c-1.605-1.605-2.497-3.788-2.475-6.058
			c0-4.713,3.82-8.533,8.533-8.533s8.533,3.821,8.533,8.533c0.022,2.27-0.87,4.453-2.475,6.058
			C422.587,180.83,420.403,181.722,418.133,181.7L418.133,181.7z"/>
		<path style="fill:#428DFF;" d="M256,241.433c-2.854,0.027-5.529-1.388-7.113-3.763c-1.584-2.374-1.863-5.388-0.742-8.012
			c0.413-1.045,1.022-2.001,1.796-2.817c1.994-2.072,4.909-2.981,7.727-2.41c2.818,0.571,5.15,2.542,6.181,5.227
			c1.124,2.624,0.847,5.638-0.736,8.013C261.53,240.046,258.854,241.461,256,241.433L256,241.433z"/>
		<path style="fill:#428DFF;" d="M298.667,301.167c-1.116-0.013-2.219-0.245-3.246-0.683c-1.033-0.433-1.984-1.039-2.813-1.792
			c-1.606-1.604-2.498-3.788-2.475-6.058c0.031-2.259,0.915-4.423,2.475-6.059c0.8-0.79,1.759-1.4,2.813-1.792
			c3.178-1.341,6.851-0.633,9.304,1.792c1.558,1.636,2.442,3.8,2.475,6.059c0.022,2.27-0.87,4.453-2.475,6.058
			C303.12,300.297,300.937,301.189,298.667,301.167z"/>
		<path style="fill:#428DFF;" d="M136.533,320.133c-23.553-0.028-42.639-19.114-42.667-42.667c0-4.713,3.821-8.533,8.533-8.533
			c4.713,0,8.533,3.82,8.533,8.533c0,10.747,6.713,20.351,16.806,24.043s21.418,0.686,28.352-7.526
			c2.198-2.623,3.22-6.034,2.825-9.433c-0.404-3.767-2.318-7.21-5.304-9.542l-44.633-34.717
			c-6.653-5.193-10.913-12.865-11.804-21.258c-0.892-8.019,1.559-16.052,6.775-22.208c11.56-13.678,30.432-18.681,47.25-12.526
			c16.818,6.155,28.001,22.159,28,40.068c0,4.713-3.821,8.533-8.533,8.533c-4.713,0-8.533-3.821-8.533-8.533
			c0-10.747-6.713-20.351-16.806-24.042c-10.094-3.692-21.418-0.686-28.352,7.526c-2.195,2.618-3.216,6.023-2.825,9.417
			c0.404,3.773,2.319,7.221,5.308,9.558l44.629,34.717c6.648,5.187,10.907,12.849,11.804,21.233
			c0.892,8.026-1.556,16.067-6.771,22.233C161.02,314.608,149.095,320.143,136.533,320.133z"/>
		<path style="fill:#428DFF;" d="M136.533,335.3c-2.263,0.001-4.434-0.898-6.035-2.499c-1.6-1.6-2.499-3.771-2.499-6.035v-153.6
			c0-4.713,3.821-8.533,8.533-8.533s8.533,3.821,8.533,8.533v153.6c0.001,2.263-0.898,4.434-2.499,6.035
			C140.968,334.402,138.797,335.301,136.533,335.3L136.533,335.3z"/>
		<path style="fill:#428DFF;" d="M34.133,104.9c-1.111,0.015-2.214-0.189-3.246-0.6c-1.019-0.493-1.966-1.124-2.813-1.875
			c-0.754-0.831-1.361-1.783-1.796-2.817c-0.475-1.013-0.708-2.123-0.679-3.242c0.031-2.259,0.915-4.423,2.475-6.059
			c3.421-3.158,8.695-3.158,12.117,0c0.363,0.438,0.704,0.894,1.021,1.367c0.341,0.434,0.602,0.925,0.771,1.45
			c0.245,0.483,0.418,1,0.513,1.534c0.098,0.565,0.155,1.136,0.171,1.708c0.006,2.267-0.884,4.444-2.475,6.059
			C38.586,104.029,36.403,104.921,34.133,104.9L34.133,104.9z"/>
		<path style="fill:#428DFF;" d="M435.2,96.367c0.014-4.707,3.826-8.52,8.533-8.533l0,0c4.707,0.015,8.518,3.827,8.533,8.533l0,0
			c-0.015,4.707-3.827,8.518-8.533,8.533l0,0C439.026,104.887,435.214,101.074,435.2,96.367L435.2,96.367z M401.067,96.367
			c0.014-4.707,3.826-8.52,8.533-8.533l0,0c4.707,0.015,8.518,3.827,8.533,8.533l0,0c-0.015,4.707-3.827,8.518-8.533,8.533l0,0
			C404.893,104.887,401.08,101.074,401.067,96.367L401.067,96.367z M366.933,96.367c0.014-4.707,3.826-8.52,8.533-8.533l0,0
			c4.707,0.015,8.518,3.827,8.533,8.533l0,0c-0.015,4.707-3.827,8.518-8.533,8.533l0,0
			C370.759,104.887,366.947,101.074,366.933,96.367L366.933,96.367z M332.8,96.367c0.014-4.707,3.826-8.52,8.533-8.533l0,0
			c4.707,0.015,8.518,3.827,8.533,8.533l0,0c-0.015,4.707-3.827,8.518-8.533,8.533l0,0
			C336.626,104.887,332.814,101.074,332.8,96.367L332.8,96.367z M298.667,96.367c0.014-4.707,3.826-8.52,8.533-8.533l0,0
			c4.707,0.015,8.518,3.827,8.533,8.533l0,0c-0.015,4.707-3.827,8.518-8.533,8.533l0,0
			C302.493,104.887,298.68,101.074,298.667,96.367L298.667,96.367z M264.533,96.367c0.013-4.707,3.826-8.52,8.533-8.533l0,0
			c4.707,0.015,8.518,3.827,8.533,8.533l0,0c-0.015,4.707-3.827,8.518-8.533,8.533l0,0
			C268.359,104.887,264.547,101.074,264.533,96.367z M230.4,96.367c0.013-4.707,3.826-8.52,8.533-8.533l0,0
			c4.707,0.015,8.518,3.827,8.533,8.533l0,0c-0.015,4.707-3.827,8.518-8.533,8.533l0,0
			C234.226,104.887,230.413,101.074,230.4,96.367z M196.267,96.367c0.013-4.707,3.826-8.52,8.533-8.533l0,0
			c4.707,0.015,8.518,3.827,8.533,8.533l0,0c-0.015,4.707-3.827,8.518-8.533,8.533l0,0
			C200.093,104.887,196.28,101.074,196.267,96.367z M162.133,96.367c0.013-4.707,3.826-8.52,8.533-8.533l0,0
			c4.707,0.015,8.518,3.827,8.533,8.533l0,0c-0.015,4.707-3.827,8.518-8.533,8.533l0,0
			C165.959,104.887,162.147,101.074,162.133,96.367z M128,96.367c0.014-4.707,3.826-8.52,8.533-8.533l0,0
			c4.707,0.015,8.518,3.827,8.533,8.533l0,0c-0.015,4.707-3.827,8.518-8.533,8.533l0,0C131.826,104.887,128.014,101.074,128,96.367z
			 M93.867,96.367c0.014-4.707,3.826-8.52,8.533-8.533l0,0c4.707,0.015,8.518,3.827,8.533,8.533l0,0
			c-0.015,4.707-3.827,8.518-8.533,8.533l0,0C97.693,104.887,93.88,101.074,93.867,96.367z M59.733,96.367
			c0.013-4.707,3.826-8.52,8.533-8.533l0,0c4.707,0.015,8.518,3.827,8.533,8.533l0,0c-0.015,4.707-3.827,8.518-8.533,8.533l0,0
			C63.559,104.887,59.747,101.074,59.733,96.367z"/>
		<path style="fill:#428DFF;" d="M477.867,104.9c-1.111,0.015-2.214-0.189-3.246-0.6c-1.019-0.493-1.966-1.124-2.813-1.875
			c-0.754-0.831-1.361-1.783-1.796-2.817c-0.475-1.013-0.708-2.123-0.679-3.242c0.014-0.573,0.071-1.144,0.171-1.708
			c0.091-0.534,0.263-1.051,0.508-1.533c0.169-0.525,0.43-1.016,0.771-1.45c0.341-0.517,0.683-0.942,1.025-1.367
			c0.829-0.753,1.78-1.359,2.813-1.792c2.077-0.858,4.41-0.858,6.487,0c1.034,0.433,1.987,1.039,2.817,1.792
			c0.363,0.438,0.704,0.894,1.021,1.367c0.341,0.434,0.601,0.925,0.771,1.45c0.245,0.483,0.418,1,0.513,1.533
			c0.098,0.565,0.155,1.136,0.171,1.708c0.029,1.119-0.205,2.229-0.683,3.242c-0.435,1.033-1.041,1.985-1.792,2.817
			C482.319,104.029,480.136,104.921,477.867,104.9z"/>
	</g>
</g>
<g>
</g>
<g>
</g>
<g>
</g>
<g>
</g>
<g>
</g>
<g>
</g>
<g>
</g>
<g>
</g>
<g>
</g>
<g>
</g>
<g>
</g>
<g>
</g>
<g>
</g>
<g>
</g>
<g>
</g>
</svg>
